<svg xmlns="http://www.w3.org/2000/svg" viewBox="0 0 512 512">
  <style>
    .ankh { fill: #1E3A5F; }
    @media (prefers-color-scheme: dark) {
      .ankh { fill: #CBD5E1; }
    }
  </style>
  <path class="ankh" d="
    M256 20
    C200 20 164 60 164 110
    C164 158 206 192 230 212
    L112 212
    L112 268
    L230 268
    L224 268
    L210 480
    C210 496 230 500 256 500
    C282 500 302 496 302 480
    L288 268
    L282 268
    L400 268
    L400 212
    L282 212
    C306 192 348 158 348 110
    C348 60 312 20 256 20
    Z
    M256 72
    C292 72 308 94 308 116
    C308 142 280 166 260 182
    L252 182
    C232 166 204 142 204 116
    C204 94 220 72 256 72
    Z
  "/>
</svg>
